# xmcd
#
# Track frame offsets:
#	150
#	23780
#	42670
#	67337
#	94820
#	119395
#	144780
#	168665
#	190555
#	210290
#	232662
#	259282
#	279382
#	299285
#	319980
#
# Disc length: 4632 seconds
# Revision: 0
# Processed by: cddbd v1.5.2PL0 Copyright (c) Steve Scherf et al.
# Submitted via: dBpowerAMP V12.0
#
DISCID=db12160f
DTITLE=Booker Newberry III - Love Town
DYEAR=1983
DGENRE=R&B
TTITLE0=Love Town
TTITLE1=Island In The Sky
TTITLE2=I Get Romantic
TTITLE3=Handle With Care
TTITLE4=Attitude
TTITLE5=Shadows
TTITLE6=Love Drums
TTITLE7=Teddy Bear
TTITLE8=Shower Of Love
TTITLE9=Lovin' On Borrowed Time
TTITLE10=The Way You Do It
TTITLE11=You And I
TTITLE12=Doin' What Comes Naturally
TTITLE13=Love Town (Froggy Mix)
TTITLE14=Shadows (12" Mix)
EXTD=
EXTT0=
EXTT1=
EXTT2=
EXTT3=
EXTT4=
EXTT5=
EXTT6=
EXTT7=
EXTT8=
EXTT9=
EXTT10=
EXTT11=
EXTT12=
EXTT13=
EXTT14=
PLAYORDER=
